<?xml version="1.0" encoding="UTF-8" standalone="no"?>
<svg
   xmlns:dc="http://purl.org/dc/elements/1.1/"
   xmlns:cc="http://creativecommons.org/ns#"
   xmlns:rdf="http://www.w3.org/1999/02/22-rdf-syntax-ns#"
   xmlns:svg="http://www.w3.org/2000/svg"
   xmlns="http://www.w3.org/2000/svg"
   xmlns:sodipodi="http://sodipodi.sourceforge.net/DTD/sodipodi-0.dtd"
   xmlns:inkscape="http://www.inkscape.org/namespaces/inkscape"
   viewBox="0 0 425.1969 283.4646"
   id="svg19"
   height="90%"
   width="90%"
   version="1.1"
   sodipodi:docname="droptv.svg"
   inkscape:version="0.92.2 5c3e80d, 2017-08-06">
  <sodipodi:namedview
     pagecolor="#ffffff"
     bordercolor="#666666"
     borderopacity="1"
     objecttolerance="10"
     gridtolerance="10"
     guidetolerance="10"
     inkscape:pageopacity="0"
     inkscape:pageshadow="2"
     inkscape:window-width="1187"
     inkscape:window-height="578"
     id="namedview15"
     showgrid="false"
     inkscape:zoom="0.83255546"
     inkscape:cx="141.41145"
     inkscape:cy="93.687452"
     inkscape:window-x="0"
     inkscape:window-y="0"
     inkscape:window-maximized="0"
     inkscape:current-layer="Layer1002" />
  <metadata
     id="metadata25">
    <rdf:RDF>
      <cc:Work
         rdf:about="">
        <dc:format>image/svg+xml</dc:format>
        <dc:type
           rdf:resource="http://purl.org/dc/dcmitype/StillImage" />
      </cc:Work>
    </rdf:RDF>
  </metadata>
  <defs
     id="defs23" />
  <g
     id="Layer1000">
    <g
       id="Layer1001">
      <path
         id="path2"
         style="fill:#008ec8;fill-rule:evenodd"
         d="m 30.0409,124.8455 c -0.0665,8.5772 -0.1327,17.1544 -0.1993,25.7317 -5.906,0 -11.8124,0 -17.7184,0 0,-14.5995 0,-29.199 0,-43.7984 12.0778,0 24.1554,0 36.2333,0 9.5319,1.398 15.5193,6.1336 16.0261,16.0261 0,12.1772 0,24.3547 0,36.5319 -0.028,14.9425 -8.458,16.7863 -17.5692,17.5689 -11.6297,0 -23.2595,0 -34.8892,0 0,-5.8564 0,-11.7125 0,-17.5689 10.2859,0 20.5721,0 30.8579,0 2.6146,-0.2387 4.3202,-1.3872 4.2802,-4.2802 0,-8.3283 0,-16.657 0,-24.9853 0.1011,-3.5849 -1.7101,-5.2571 -5.2258,-5.2258 -3.932,0 -7.8637,0 -11.7956,0 z" />
      <path
         id="path4"
         style="fill:#008ec8;fill-rule:evenodd"
         d="m 378.0299,130.3702 h 7e-4 l 8.3967,-23.2435 h -16.7941 z" />
    </g>
    <g
       id="Layer1002">
      <path
         id="path7"
         style="fill:#ffffff;fill-rule:evenodd"
         d="M 367.5296,176.2507 341.615,107.1451 h 19.6321 l 16.2948,44.9577 18.0619,-44.7615 h 17.6688 l -26.5034,68.9094 z"
         inkscape:connector-curvature="0" />
      <path
         id="path9"
         style="fill:#ffffff;fill-rule:evenodd"
         d="m 318.3685,124.0386 v 52.1598 h -17.3203 v -52.1598 h -18.4156 v -15.9268 h 54.1511 v 15.9268 z"
         inkscape:connector-curvature="0" />
      <path
         id="path11"
         style="fill:#ffffff;fill-rule:evenodd"
         d="m 161.1905,106.7177 c 19.4617,0 35.238,15.7763 35.238,35.238 0,19.4617 -15.7763,35.238 -35.238,35.238 -19.4618,0 -35.2381,-15.7763 -35.2381,-35.238 0,-19.4617 15.7763,-35.238 35.2381,-35.238 z m 0,17.1213 c 10.0056,0 18.1166,8.111 18.1166,18.1167 0,10.0056 -8.111,18.1167 -18.1166,18.1167 -10.0057,0 -18.1167,-8.1111 -18.1167,-18.1167 0,-10.0057 8.111,-18.1167 18.1167,-18.1167 z"
         inkscape:connector-curvature="0" />
      <path
         id="path13"
         style="fill:#ffffff;fill-rule:evenodd"
         d="m 96.9865,106.5181 c 14.1835,0 25.6817,11.4982 25.6817,25.6817 0,10.1809 -5.9247,18.9781 -14.514,23.1325 l 14.9125,20.9657 H 101.7648 L 88.4387,156.4227 c -0.2383,-0.0843 -0.4752,-0.1715 -0.7103,-0.2624 v 20.0381 h -16.622 v -43.9986 h 0.1984 c 0,-14.1835 11.4982,-25.6817 25.6817,-25.6817 z m 0,16.5239 c 5.0579,0 9.1578,4.0999 9.1578,9.1578 0,5.0579 -4.0999,9.1578 -9.1578,9.1578 -5.0579,0 -9.1578,-4.0999 -9.1578,-9.1578 0,-5.0579 4.0999,-9.1578 9.1578,-9.1578 z"
         inkscape:connector-curvature="0" />
      <path
         id="path15"
         style="fill:#ffffff;fill-rule:evenodd"
         d="m 226.391,106.2707 c 14.2936,0 25.8803,11.5867 25.8803,25.8804 0,14.2936 -11.5867,25.8803 -25.8803,25.8803 -3.1871,0 -6.239,-0.5775 -9.0585,-1.6313 v 19.7983 h -16.7232 v -41.7948 c -0.0638,-0.7425 -0.0987,-1.4935 -0.0987,-2.2525 0,-14.2937 11.5867,-25.8804 25.8804,-25.8804 z m 0,16.6229 c 5.113,0 9.2574,4.1445 9.2574,9.2575 0,5.113 -4.1444,9.2574 -9.2574,9.2574 -5.113,0 -9.2575,-4.1444 -9.2575,-9.2574 0,-5.113 4.1445,-9.2575 9.2575,-9.2575 z"
         inkscape:connector-curvature="0" />
    </g>
  </g>
</svg>
